<svg xmlns="http://www.w3.org/2000/svg" viewBox="0 0 512 512"><!--!Font Awesome Free 6.6.0 by @fontawesome - https://fontawesome.com License - https://fontawesome.com/license/free Copyright 2024 Fonticons, Inc.--><path d="M488.6 23.4a80 80 0 0 0 -113.1 0l-352 352a80 80 0 1 0 113.1 113.1l352-352a80 80 0 0 0 0-113.1zm-49.9 95.2c-19.6 19.6-37.5 22.7-51.9 25.1C373.8 146 364.4 147.6 352 160s-14 21.8-16.2 34.7c-2.5 14.4-5.6 32.3-25.2 51.9s-37.5 22.7-51.9 25.2C245.8 274 236.4 275.6 224 288s-14 21.8-16.2 34.7c-2.5 14.4-5.5 32.3-25.1 51.9s-37.5 22.7-51.9 25.2C117.8 402 108.4 403.6 96 416a16 16 0 0 1 -22.6-22.6c19.6-19.6 37.5-22.7 51.9-25.1 13-2.2 22.3-3.8 34.7-16.2s14-21.8 16.2-34.7c2.5-14.4 5.6-32.3 25.2-51.9s37.5-22.7 51.9-25.1c13-2.2 22.3-3.8 34.7-16.2s14-21.8 16.2-34.7c2.5-14.4 5.5-32.3 25.1-51.9s37.5-22.7 51.9-25.2C394.2 110 403.6 108.4 416 96a16 16 0 0 1 22.6 22.6zM31.4 322.2L322.2 31.4l-11.5-11.6c-25-25-63.9-26.7-86.8-3.7L16.2 223.9c-22.9 22.9-21.3 61.8 3.7 86.8zm449.1-132.4L189.8 480.6l11.5 11.6c25 25 63.9 26.7 86.8 3.7l207.7-207.7c22.9-22.9 21.3-61.8-3.7-86.8z"/></svg>
