<?xml version="1.0" standalone="no"?>
<!DOCTYPE svg PUBLIC "-//W3C//DTD SVG 20010904//EN"
 "http://www.w3.org/TR/2001/REC-SVG-20010904/DTD/svg10.dtd">
<svg version="1.0" xmlns="http://www.w3.org/2000/svg"
 width="512.000000pt" height="512.000000pt" viewBox="0 0 512.000000 512.000000"
 preserveAspectRatio="xMidYMid meet">

<g transform="translate(0.000000,512.000000) scale(0.100000,-0.100000)"
fill="#000000" stroke="none">
<path d="M3264 5006 c-266 -61 -480 -323 -560 -688 -25 -116 -30 -355 -9 -479
46 -280 174 -517 345 -641 36 -25 80 -60 98 -76 40 -37 39 128 3 -1479 -19
-836 -26 -1277 -19 -1305 19 -90 96 -166 189 -188 155 -38 303 70 316 229 2
31 -9 649 -26 1375 -26 1156 -28 1322 -16 1346 8 16 41 45 74 64 70 43 192
170 239 249 294 491 184 1234 -224 1506 -125 84 -280 117 -410 87z m272 -191
c55 -27 90 -54 144 -112 223 -239 291 -685 159 -1047 -58 -159 -149 -281 -267
-359 -38 -25 -82 -61 -100 -81 -65 -74 -63 10 -30 -1490 31 -1354 31 -1358 11
-1384 -42 -56 -120 -52 -164 8 -18 24 -18 64 12 1365 23 1004 28 1354 20 1394
-15 75 -54 127 -136 179 -169 108 -277 286 -327 537 -27 136 -21 378 12 503
59 226 169 392 314 477 114 67 232 70 352 10z"/>
<path d="M1082 4920 c-11 -11 -24 -35 -27 -52 -3 -18 -5 -373 -3 -788 3 -682
5 -761 21 -814 32 -107 86 -194 187 -301 117 -124 142 -170 148 -283 2 -46 -8
-593 -24 -1216 -24 -976 -26 -1139 -14 -1181 20 -71 97 -148 169 -169 68 -20
84 -20 152 0 69 20 152 101 170 166 10 34 7 270 -16 1189 -15 631 -26 1180
-23 1220 7 104 34 154 148 274 101 107 155 194 187 301 16 53 18 132 21 814 2
415 0 770 -3 788 -13 68 -84 94 -130 47 l-25 -24 0 -744 c0 -491 -4 -763 -11
-803 -18 -102 -60 -173 -168 -288 -111 -118 -156 -194 -173 -298 -9 -50 -5
-316 16 -1159 33 -1347 33 -1270 2 -1306 -20 -23 -32 -28 -71 -28 -39 0 -51 5
-71 28 -31 36 -31 -41 3 1305 21 849 24 1109 16 1159 -18 105 -62 181 -174
299 -108 115 -150 186 -168 288 -7 40 -11 312 -11 803 l0 744 -25 24 c-30 30
-73 32 -103 5z"/>
<path d="M1400 4910 c-20 -20 -20 -33 -20 -590 0 -557 0 -570 20 -590 27 -27
83 -27 110 0 20 20 20 33 20 590 0 557 0 570 -20 590 -12 12 -33 20 -55 20
-22 0 -43 -8 -55 -20z"/>
<path d="M1720 4910 c-20 -20 -20 -33 -20 -590 0 -557 0 -570 20 -590 27 -27
83 -27 110 0 20 20 20 33 20 590 0 557 0 570 -20 590 -12 12 -33 20 -55 20
-22 0 -43 -8 -55 -20z"/>
</g>
</svg>
